<svg xmlns="http://www.w3.org/2000/svg" width="16" height="16" viewBox="0 0 16 16">
  <g id="favicon" transform="translate(0.48)">
    <rect id="Rectángulo_16" data-name="Rectángulo 16" width="16" height="16" transform="translate(-0.481)" fill="none"/>
    <g id="Enmascarar_grupo_2" data-name="Enmascarar grupo 2" transform="translate(0.878)">
      <path id="Trazado_6" data-name="Trazado 6" d="M50.706-376.658a18.523,18.523,0,0,0-1.307,4.224,14.346,14.346,0,0,0-.018,3.491,1.685,1.685,0,0,1-.018.76,5.336,5.336,0,0,0,.089,2.486,5.5,5.5,0,0,0,1.579,2.33,4.885,4.885,0,0,0,1.4.965c.271.138.587.311.7.382a5.927,5.927,0,0,0,1.876.769,8.588,8.588,0,0,0,1.912,0,5.927,5.927,0,0,0,1.876-.769c.111-.071.427-.245.7-.382a4.885,4.885,0,0,0,1.4-.965,5.5,5.5,0,0,0,1.579-2.33,5.336,5.336,0,0,0,.089-2.486,1.686,1.686,0,0,1-.018-.76,14.346,14.346,0,0,0-.018-3.491,18.523,18.523,0,0,0-1.307-4.224,1.417,1.417,0,0,0-.187-.342,18.957,18.957,0,0,0-1.512,1.579,9.332,9.332,0,0,0-1.445,2.49,2.743,2.743,0,0,1-.222.5c-.044.049-.107.049-.36,0a19.509,19.509,0,0,0-3.059,0c-.253.049-.316.049-.36,0a2.743,2.743,0,0,1-.222-.5,9.332,9.332,0,0,0-1.445-2.49A18.957,18.957,0,0,0,50.893-377,1.417,1.417,0,0,0,50.706-376.658Zm2,8.906a2.508,2.508,0,0,1,1.9,2.508c.013.2.036.436.049.525l.018.169H54.33a4.409,4.409,0,0,1-1.405-.24,2.212,2.212,0,0,1-1.3-1.161,3.359,3.359,0,0,1-.32-1.418l-.027-.529.551.027A4.419,4.419,0,0,1,52.707-367.751Zm7.91.387a3.354,3.354,0,0,1-.32,1.414A2.212,2.212,0,0,1,59-364.79a4.409,4.409,0,0,1-1.405.24h-.342l.018-.169c.013-.089.036-.329.049-.525a2.618,2.618,0,0,1,2.93-2.637l.4,0Z" transform="translate(-49.259 377)" fill="#da0037"/>
    </g>
  </g>
</svg>
